<?xml version="1.0" encoding="utf-8"?>
<!-- Generator: Adobe Illustrator 20.0.0, SVG Export Plug-In . SVG Version: 6.00 Build 0)  -->
<svg version="1.1" id="ae7ad495-543d-4c4b-9483-8059c5566fe6"
	 xmlns="http://www.w3.org/2000/svg" xmlns:xlink="http://www.w3.org/1999/xlink" x="0px" y="0px" viewBox="0 0 1009.5 839.6"
	 style="enable-background:new 0 0 1009.5 839.6;" xml:space="preserve">
<style type="text/css">
	.st0{opacity:0.1;fill:#38D39F;enable-background:new    ;}
	.st1{fill:#233340;}
	.st2{fill:#38D39F;}
	.st3{fill:#444053;}
	.st4{fill:#3A3768;}
	.st5{fill:#17222B;}
	.st6{fill:#E6E8EC;}
	.st7{fill:url(#SVGID_1_);}
	.st8{fill:#8E6F7F;}
	.st9{fill:#5F5570;}
	.st10{opacity:0.1;enable-background:new    ;}
	.st11{fill:#EAEAF2;}
	.st12{fill:#BC8487;}
	.st13{fill:#FFC4D0;}
	.st14{opacity:0.1;}
	.st15{fill:#FFD037;}
	.st16{fill:#A8A8A8;}
	.st17{opacity:0.2;enable-background:new    ;}
</style>
<title>personalization</title>
<path class="st0" d="M586.6,111.4c-64.7-2.2-126.4-23.1-185.2-46S284.2,17.2,221,5.1C180.4-2.7,133.9-3.8,101.2,18
	C69.7,39,59.5,75.1,54,108.7c-4.1,25.3-6.5,51.9,4.7,75.5c7.8,16.4,21.7,30.2,31.4,46c33.5,54.7,9.8,122.2-26.4,175.6
	c-17,25.1-36.8,49-49.9,75.7c-13.1,26.7-19.2,57.2-7.7,84.5c11.4,27,38.5,47.2,67.9,61.5c59.7,29,130,37.2,198.6,41.9
	c151.8,10.4,304.5,5.9,456.7,1.4c56.3-1.7,112.9-3.4,168.3-12.1c30.8-4.8,62.6-12.5,84.9-31c28.4-23.5,35.4-63.4,16.4-92.9
	c-31.9-49.5-120-61.8-142.3-114.9c-12.3-29.2,0.3-61.8,18.2-88.9c38.2-58.2,102.3-109.2,105.7-175.7c2.3-45.7-28.5-91.4-76.1-113
	c-49.9-22.6-119.2-19.8-156,17.7C710.4,98.5,643.7,113.4,586.6,111.4z"/>
<ellipse class="st0" cx="483.5" cy="781" rx="304" ry="41.1"/>
<path class="st1" d="M333,658.6c0,0,21-3.4,33.6,11.5c0,0-9.2,7.3-29.1-2.8L333,658.6z"/>
<path class="st1" d="M330.8,658.2c0,0-13.4,16.6-6.8,34.9c0,0,10.9-4.4,12.1-26.6L330.8,658.2z"/>
<path class="st1" d="M318.8,631.1c0,0,8.4-15.4,42,6.2c0,0-4.5,10.4-19.3,9.5S322.6,639.2,318.8,631.1z"/>
<path class="st1" d="M316.6,630c0,0-17.4-2-19.1,37.9c0,0,11,2.3,18.9-10.3S320.9,637.9,316.6,630z"/>
<path class="st1" d="M306.4,598.2c0,0,9.8-27.2,45.4-7.8c0,0-8.1,24.9-41.7,17.1L306.4,598.2z"/>
<path class="st1" d="M295.5,557.6c0,0,18.5-27.4,51.2-2c0,0-11.5,25.8-48.5,11.8L295.5,557.6z"/>
<path class="st1" d="M291.6,519c0,0,21.6-25.2,54,0c0,0-20.5,22.1-54,6.4V519z"/>
<path class="st1" d="M288.2,481.4c0,0,21.8-26.3,52.9-1.4c0,0-24.6,23.2-52.9,7.6V481.4z"/>
<path class="st1" d="M290.2,448.1c0,0,23-33.9,52.1-10.9c0,0-24.6,29.1-52.1,17.4V448.1z"/>
<path class="st1" d="M295.5,409.2c0,0,24.4-33.6,52.6-7.8c0,0-28.9,29.1-52.6,14V409.2z"/>
<path class="st1" d="M303.6,374.4c0,0,28.8-31.6,54-19c0,0-30.1,33.5-55.3,27.4L303.6,374.4z"/>
<path class="st1" d="M313.7,341.4c0,0,33.3-38.6,52.6-25.8c0,0-24.5,30-55,33L313.7,341.4z"/>
<path class="st1" d="M328.2,303.2c0,0,29.1-31.6,50.4-23.7c0,0-24.9,32.8-54.3,33.6L328.2,303.2z"/>
<path class="st1" d="M341.4,267.4c0,0,32.2-30.2,46.2-24.9c0,0-23.2,33.6-47.6,31.6L341.4,267.4z"/>
<path class="st2" d="M354.3,234.3c0,0,27.7-36.1,42.8-33.3c0,0-16.8,32.2-42.8,37V234.3z"/>
<path class="st2" d="M368.3,189.8c0,0,24.5-27.7,37.7-27.6c0,0-19.3,37-38.7,36.7L368.3,189.8z"/>
<path class="st1" d="M376.5,160.1l23.7-57.7c0,0,1.2,52.1-26.7,68.4L376.5,160.1z"/>
<path class="st1" d="M386.1,96.5c0,0,3.9-48.2,1.4-52.1c0,0,16.9,40-1.6,73.4L386.1,96.5z"/>
<path class="st1" d="M305.5,597.5c0,0-24.5-15.2-40.4,22c0,0,21.8,14.5,43.3-12.5L305.5,597.5z"/>
<path class="st1" d="M294.7,556c0,0-30.1-13.7-44.7,25.1c0,0,23.3,16,47.5-15.3L294.7,556z"/>
<path class="st1" d="M290.2,521.3c0,0-21.6-25.2-54,0c0,0,20.4,22.1,54,6.4V521.3z"/>
<path class="st1" d="M287.5,481.4c0,0-21.9-26.3-52.9-1.4c0,0,24.6,23.2,52.9,7.6V481.4z"/>
<path class="st1" d="M290.2,449.1c0,0-15.3-38-48.6-21.6c0,0,18,33.7,47.3,27.9L290.2,449.1z"/>
<path class="st1" d="M297.4,409c0,0-15.2-38.6-49-20.7c0,0,20.7,35.4,47.5,26.7L297.4,409z"/>
<path class="st1" d="M306.8,374.6c0,0-6-42.3-34-46.1c0,0,5.9,44.6,30.2,53.8L306.8,374.6z"/>
<path class="st1" d="M314.4,341.5c0,0-2.4-51-25.5-52.8c0,0,0.8,38.7,22.9,60L314.4,341.5z"/>
<path class="st1" d="M330.6,301.7c0,0-6.9-42.4-29-47.6c0,0,2.7,41.1,26.8,58L330.6,301.7z"/>
<path class="st1" d="M344,267.7c0,0-0.2-44.2-13.7-50.7c0,0-8.4,40,9.8,56.3L344,267.7z"/>
<path class="st1" d="M355.3,233.8c0,0-1.9-45.5-15.9-51.9c0,0-4.8,36,13.8,54.9L355.3,233.8z"/>
<path class="st1" d="M370.2,193.4c0,0-0.1-37-10.1-45.7c0,0-9.9,40.5,4.9,53.1L370.2,193.4z"/>
<path class="st1" d="M375.4,158.3l-9.7-61.6c0,0-13.2,50.5,10.2,72.7L375.4,158.3z"/>
<path class="st1" d="M377.3,97.1c0,0-24.9-41.4-24.4-46c0,0,2.6,43.4,34,65L377.3,97.1z"/>
<path class="st1" d="M380.2,84.9c0,0-23.5-58.8-34.2-63.6c0,0,33.6,17.1,36.1,61.9L380.2,84.9z"/>
<path class="st3" d="M367.1,199.2l-1.6-0.5c19.9-64.7,24.8-106,14-116.3l1.2-1.2C392.1,92,387.5,132.8,367.1,199.2z"/>
<path class="st3" d="M312.5,350.7l-2.4-0.8c2.1-5.9,4.4-12,6.8-17.9c20.7-51.6,38.4-99.7,49.7-136.6l2.1-1
	c-11.3,37-28.6,86.8-49.4,138.5C316.8,338.8,314.6,344.8,312.5,350.7z"/>
<path class="st3" d="M362.6,707c-0.3-0.4-32.5-36.6-54.9-98.4c-13.1-36.2-20.5-74.3-21.7-112.8c-1.5-48.1,8.6-101.9,25.9-150.7
	l1.9,2.2c-38.8,109.6-23.4,203.5-2.9,260c22.2,61.3,54,97.1,54.3,97.5L362.6,707z"/>
<path class="st4" d="M645.1,289.8h4.3c1.3,0,2.3,1,2.3,2.3v68.4c0,1.3-1,2.3-2.3,2.3h-4.3c-1.3,0-2.3-1-2.3-2.3v-68.4
	C642.8,290.8,643.8,289.8,645.1,289.8z"/>
<path class="st4" d="M350.7,232.6h0.4c1.3,0,2.3,1,2.3,2.3v19.5c0,1.3-1,2.3-2.3,2.3h-0.4c-1.3,0-2.3-1-2.3-2.3v-19.5
	C348.4,233.6,349.4,232.6,350.7,232.6z"/>
<path class="st4" d="M350.5,276.6h1c1.3,0,2.3,1,2.3,2.3v37.3c0,1.3-1,2.3-2.3,2.3h-1c-1.3,0-2.3-1-2.3-2.3v-37.3
	C348.2,277.7,349.2,276.6,350.5,276.6z"/>
<path class="st4" d="M350.6,333.1h0.7c1.3,0,2.3,1,2.3,2.3V373c0,1.3-1,2.3-2.3,2.3h-0.7c-1.3,0-2.3-1-2.3-2.3v-37.6
	C348.3,334.1,349.3,333.1,350.6,333.1z"/>
<path class="st4" d="M390.2,153.2h218.4c21.5,0,39,17.5,39,39v524.4c0,21.5-17.5,39-39,39H390.2c-21.5,0-39-17.5-39-39V192.2
	C351.2,170.6,368.6,153.2,390.2,153.2z"/>
<path class="st5" d="M605.8,168.8h-34v4.1c0,10.7-8.7,19.4-19.4,19.4c0,0,0,0,0,0H444.2c-10.7,0-19.4-8.7-19.4-19.4c0,0,0,0,0,0
	v-4.1H393c-13,0-23.5,10.5-23.5,23.5v0v524c0,13,10.5,23.5,23.5,23.5h212.7c13,0,23.5-10.5,23.5-23.5V192.4
	C629.3,179.4,618.8,168.8,605.8,168.8C605.8,168.8,605.8,168.8,605.8,168.8z"/>
<path class="st6" d="M474.7,171.2h33.6c2.1,0,3.9,1.7,3.9,3.9v0.7c0,2.1-1.7,3.9-3.9,3.9h-33.6c-2.1,0-3.9-1.7-3.9-3.9V175
	C470.8,172.9,472.5,171.2,474.7,171.2z"/>
<circle class="st6" cx="523.2" cy="175.4" r="4.8"/>
<path class="st1" d="M750.2,126.7c0,0-84.2-5.1-74.3,53.9c0,0-2,10.4,7.5,15.2c0,0,0.2-4.4,8.6-2.9c3,0.5,6.1,0.6,9.2,0.4
	c4.1-0.3,8-1.9,11.2-4.6l0,0c0,0,23.7-9.8,32.9-48.5c0,0,6.8-8.4,6.5-10.6l-14.2,6.1c0,0,4.9,10.2,1,18.8c0,0-0.5-18.4-3.2-18
	c-0.5,0.1-7.4,3.6-7.4,3.6s8.3,17.9,2,30.8c0,0,2.4-22-4.7-29.5l-10,5.8c0,0,9.8,18.4,3.1,33.5c0,0,1.7-23.1-5.2-32.1l-9.1,7.1
	c0,0,9.2,18.2,3.6,30.6c0,0-0.7-26.9-5.5-28.9c0,0-7.9,7-9.1,9.9c0,0,6.3,13.2,2.4,20.2c0,0-2.4-17.9-4.3-18c0,0-7.9,11.9-8.7,20
	c0,0,0.3-12.1,6.8-21.1c0,0-7.6,1.3-12.1,6.3c0,0,1.2-8.4,14-9.1c0,0,6.5-9,8.3-9.5c0,0-12.7-1.1-20.5,2.4c0,0,6.8-7.9,22.8-4.3
	l9-7.3c0,0-16.8-2.3-23.9,0.2c0,0,8.2-7,26.3-1.9l9.7-5.8c0,0-14.3-3.1-22.8-2c0,0,9-4.9,25.7,0.4l7-3.1c0,0-10.5-2.1-13.5-2.4
	c-3.1-0.3-3.2-1.2-3.2-1.2c6.6-1.1,13.5-0.3,19.7,2.2C735.7,133.2,750.5,127.7,750.2,126.7z"/>
<path class="st1" d="M663.8,100.5c0,0-38-2.3-33.6,24.4c0,0-0.9,4.7,3.4,6.9c0,0,0.1-2,3.9-1.3c1.4,0.2,2.8,0.3,4.1,0.2
	c1.9-0.1,3.6-0.9,5-2.1l0,0c0,0,10.7-4.4,14.9-21.9c0,0,3.1-3.8,3-4.8l-6.4,2.7c0,0,2.2,4.6,0.5,8.5c0,0-0.2-8.3-1.4-8.1
	c-0.2,0-3.3,1.6-3.3,1.6s3.8,8.1,0.9,13.9c0,0,1.1-9.9-2.1-13.4l-4.5,2.7c0,0,4.4,8.3,1.4,15.1c0,0,0.8-10.4-2.4-14.5l-4.1,3.2
	c0,0,4.1,8.2,1.6,13.9c0,0-0.3-12.1-2.5-13.1c0,0-3.6,3.2-4.1,4.5c0,0,2.8,6,1.1,9.1c0,0-1.1-8.1-2-8.1c0,0-3.6,5.4-3.9,9
	c0.2-3.4,1.2-6.7,3.1-9.5c-2.1,0.4-4,1.4-5.5,2.8c0,0,0.6-3.8,6.3-4.1c0,0,3-4.1,3.7-4.3c0,0-5.8-0.5-9.2,1.1c0,0,3.1-3.6,10.3-1.9
	l4-3.3c0,0-7.6-1-10.8,0.1c0,0,3.7-3.2,11.9-0.9l4.4-2.6c0,0-6.5-1.4-10.3-0.9c0,0,4.1-2.2,11.6,0.2l3.2-1.4c0,0-4.7-0.9-6.1-1.1
	s-1.5-0.5-1.5-0.5c3-0.5,6.1-0.2,8.9,1C657.2,103.5,664,100.9,663.8,100.5z"/>
<rect x="395.9" y="226.2" class="st1" width="206.9" height="439.2"/>
<linearGradient id="SVGID_1_" gradientUnits="userSpaceOnUse" x1="491.1981" y1="199.0188" x2="698.0695" y2="199.0188" gradientTransform="matrix(1 0 0 -1 -95.23 809.82)">
	<stop  offset="0" style="stop-color:#808080;stop-opacity:0.25"/>
	<stop  offset="0.54" style="stop-color:#808080;stop-opacity:0.12"/>
	<stop  offset="1" style="stop-color:#808080;stop-opacity:0.1"/>
</linearGradient>
<path class="st7" d="M596.5,788c0,0-4.9-11.4-7.1-16.6c-1.2-3-3.3-3.5-4.9-3.4l0.1-1l0.4-4.7l0.1-1c3.8-0.8,7-1.4,7-1.4l-2.4-121.3
	c0,0-1-1.3-3.4-9c-1.2-3.8-7-8.6-12.4-12.3c-0.8-0.6-1.7-1.2-2.5-1.7c2-1.7,4-3.2,6.2-4.6c3.1-1.8,4.1-12,4.1-12l-0.5,1
	c0.5-1,0-27.1,0-27.1l-1.8-27.1c0,0-1.3-32.2-11.3-40.6s-22.6-11.4-22.6-11.4l-7-1.8l0,0l-12.9-3.3c-0.4-0.6-0.7-1.2-1-1.9
	c-0.1-0.2-0.2-0.5-0.4-0.8c8-5.7,12.8-14.9,12.8-24.6c0-1.6-0.1-3.2-0.4-4.8c0-0.3-0.1-0.6-0.2-0.9c1.1-0.7,2.1-1.5,3-2.4
	c1.5-1.2,2.8-2.7,3.7-4.5l0,0c0.1-0.3,0.3-0.7,0.3-1c0-0.1,0-0.2,0.1-0.3s0.1-0.5,0.1-0.8c0-0.1,0-0.2,0-0.3c0-0.3,0-0.6,0-0.9
	c0-0.1,0-0.1,0-0.2c0-0.3,0-0.7-0.1-1c0,0,0,0,0-0.1l0,0c-0.2-1.2-0.5-2.3-0.9-3.4c-1-2.6-2.3-5-2.8-7.8c-0.6-3.2,0.1-6.8-1.5-9.7
	c-1.3-2.2-3.5-3.8-6.1-4.2c-2.5-0.4-5.1-0.1-7.5,0.9c-1.2,0.6-2.4,0.9-3.7,1c-0.9-0.1-1.9-0.3-2.7-0.7c-3-1.2-5.8-2.7-8.4-4.5
	c-1.9-1.5-3.9-2.8-6-3.9c-2.1-1.1-4.7-1.2-6.9-0.3c-3.7,1.9-4.4,7.1-7.8,9.4c-2.4,1.6-5.5,1.4-8.3,1.5s-6.1,0.8-7.5,3.3
	c-1,1.7-0.8,3.8-0.6,5.8l0.1,0.7c0,0.2,0,0.5,0.1,0.7c0.2,2.6-0.2,5.1-1.1,7.6c-1.4,3.7-4,7.3-3.9,11l0,0c0,0.6,0.1,1.2,0.2,1.8
	c0.1,0.3,0.2,0.6,0.3,0.9l0,0c0.6,1.2,1.2,2.4,1.8,3.6l0.1,0.2c0.1,0.1,0.1,0.3,0.2,0.4s0.2,0.4,0.2,0.6s0.1,0.2,0.1,0.3
	s0.1,0.4,0.2,0.6c0.2,0.6,0.2,1.2,0.2,1.7c-0.1,0.8-0.2,1.5-0.2,2.3c0,0.8,0.6,1.5,1.3,1.6c0.4,0,0.8-0.1,1.2-0.4
	c0.9-0.5,1.8-1.1,2.5-1.8c0,0.3,0,0.6,0.1,1c0.7,7.2,3.9,13.8,9.1,18.8c0,0.3,0,0.6-0.1,1s0,0.7-0.1,1.1l0,0l-11.2,3.5
	c0,0,0.1,0.2,0.2,0.5l-1.2,0.5l0,0c-5.8,2.3-12.3,5.3-15.9,7.9c-1.6,1.2-3.1,2.1-4.4,2.9c-4.8,2.9-8.4,7.3-10.4,12.5l-0.2,0.4
	c-1,2.3-5.9,17.9-5.9,17.9s-3.6,8.7-4.1,14.3c0,0-5.9,18.6-4.4,30.9c0,0-4.6,17.6-2.8,20.4c0,0-1.8,7.6,6.2,15.2
	c-0.6,0.4-1.2,0.8-1.9,1.2c-6.3,3.9-15.3,10.3-16.8,15.3c-2.4,7.7-3.4,9-3.4,9l-2.4,121.1c0,0,3.2,0.6,7,1.4l0.1,1l0.4,4.7l0.1,1
	c-1.6-0.1-3.7,0.5-4.9,3.4c-2.2,5.2-7,16.6-7,16.6s-10.8,10-4.2,19.3c0.3,0.4,0.6,0.8,1,1.2c4.7,4.3,14.7,1.5,21.8-1.2
	c3.6-1.5,6.7-4.1,9-7.3c0.6-0.8,1.4-1.2,2.4-1.3c1.6-0.3,3.2-0.9,4.5-2c1.6-1.2,2.5-3,2.5-5c0,0,0-0.1,0-0.2l-0.6-14.2
	c0,0-0.8-9.9-3.2-9.3l-0.6,0.2l-0.2-1l0,0l-0.3-1.9l-0.2-1h1.4c0,0,0.3-11.2,4.5-20.1s6.8-80.2,6.8-80.2s50.9,0.8,52.6-3.9l0,0
	c1,0,2.1,0,3.1-0.1c1.7,4.8,49.7,5,49.7,5s2.7,71.5,6.8,80.3c0.9,1.9,1.6,3.9,2.2,5.9l0,0c1.3,4.6,2.1,9.4,2.3,14.2h1.4l-0.2,1
	l-0.3,1.9l-0.2,1l-0.7-0.2c-2.4-0.6-3.2,9.3-3.2,9.3l-0.7,14.3c-0.1,2,0.8,3.8,2.4,5c1.3,1,2.9,1.7,4.5,2c1,0.1,1.8,0.6,2.4,1.3
	c2.3,3.2,5.4,5.7,9,7.3c7.7,3,18.7,5.9,22.8,0.1C607.3,798,596.5,788,596.5,788z M467.2,609.7L467.2,609.7h0.1H467.2z M547.6,568.8
	c0,0,1.3,4.8,3.6,7.4s1.2,18.4,1.2,18.4c-0.9,0.1-1.8,0.2-2.7,0.4C547.9,584.5,546.2,572.8,547.6,568.8z"/>
<polygon class="st8" points="437,768.4 416.9,770.4 416.3,763.7 415.9,759.1 415.4,752.3 434.4,753.3 435.9,762 436.2,763.9 
	436.2,763.9 "/>
<polygon class="st8" points="583.4,753.3 582.9,760.1 582.5,764.7 581.9,771.4 561.8,769.4 562.6,764.9 562.9,763 564.4,754.3 "/>
<path class="st9" d="M562.1,655.9l-59.8,2.8c-2.7,0.1-5.4,0.1-8.2,0l-57.1-2.8v-45.3h125.1V655.9z"/>
<path class="st10" d="M562.1,655.9l-59.8,2.8c-2.7,0.1-5.4,0.1-8.2,0l-57.1-2.8v-45.3h125.1V655.9z"/>
<path class="st11" d="M485.5,488.7c0,0-19.9,6.7-27.4,12.2c-1.6,1.1-3,2.1-4.3,2.8c-4.6,2.9-8.2,7.2-10.1,12.3
	c0,0.1-0.1,0.3-0.2,0.4c-1,2.2-5.8,17.5-5.8,17.5s-3.5,8.5-4,14s28.5,20.2,28.5,20.2s-14,30.5-7.8,38.2s97.5,11.5,95.5,0
	s-5.5-30.5-3.8-35.8l31-22.5c0,0-1.2-31.5-11-39.8s-22-11.2-22-11.2l-19.4-5c0,0-6.8,17-14.3,19.2
	C503.1,513.7,486.7,503.3,485.5,488.7z"/>
<path class="st10" d="M513.5,517.4c0,0-8.5,7.1-12.9,0c0,0-4,11.9,0,15.9l-0.2,0.8l-0.7,3.6l-9.3,77l7.6,13.2l13.9-17.4l-1.1-72
	l-0.5-4.1l-0.1-1h2.4C512.6,533.3,518.9,522.4,513.5,517.4z"/>
<path class="st10" d="M515.5,517.4c0,0-8.5,7.1-12.9,0c0,0-4,11.9,0,15.9l-0.2,0.8l-0.7,3.6l-9.3,77l7.6,13.2l13.9-17.4l-1.1-72
	l-0.5-4.1l-0.1-1h2.4C514.6,533.3,520.9,522.4,515.5,517.4z"/>
<polygon class="st12" points="513,609.4 499.1,626.8 491.5,613.7 500.7,536.7 501.4,533.1 501.6,532.3 502.9,529.1 511.2,532.3 
	511.4,533.3 511.9,537.4 "/>
<path class="st10" d="M435.9,762c-4.3,0-8.6-0.5-12.8-1.3c-2.1-0.5-4.7-1.1-7.1-1.6l-0.6-6.8l19,1L435.9,762z"/>
<path class="st9" d="M499.2,658.8c-1.7,4.7-51.2,3.8-51.2,3.8s-2.7,70-6.7,78.7S437,761,437,761s-8.7,0-14-1.3s-14-3-14-3l2.3-118.8
	c0,0,1-1.2,3.3-8.8c1.5-4.8,10.3-11.1,16.4-15c3.4-2.1,5.9-3.5,5.9-3.5l29.6,1.2l18.3,0.7C484.9,612.6,500.9,654.2,499.2,658.8z"/>
<path class="st10" d="M437,768.4l-20.1,2l-0.6-6.7c0.8,0,1.5,0.2,2.2,0.5c3.7,2.6,14.2,0.5,17.7-0.3l0,0L437,768.4z"/>
<path class="st12" d="M440.8,787.9c0,1.9-0.9,3.8-2.4,4.9c-1.3,1-2.8,1.6-4.3,1.9c-0.9,0.1-1.8,0.6-2.3,1.3
	c-2.2,3.1-5.3,5.6-8.8,7.1c-6.9,2.7-16.7,5.4-21.2,1.2c-0.4-0.3-0.7-0.7-1-1.1c-6.4-9.1,4.1-18.9,4.1-18.9s4.7-11.1,6.9-16.2
	c0.9-2.6,3.8-4,6.4-3.1c0.2,0.1,0.3,0.1,0.5,0.2c4,2.9,16.1,0.1,18.5-0.5s3.1,9.1,3.1,9.1l0.6,13.9
	C440.8,787.8,440.8,787.8,440.8,787.9z"/>
<path class="st10" d="M583.4,753.3l-0.6,6.8c-2.4,0.5-5,1.1-7.1,1.6c-4.2,0.8-8.5,1.3-12.8,1.3l1.5-8.7L583.4,753.3z"/>
<path class="st9" d="M589.8,757.7c0,0-8.7,1.7-14,3s-14,1.3-14,1.3s-0.3-11-4.3-19.7s-6.7-78.7-6.7-78.7s-46.8-0.3-48.5-4.9
	s20.4-45,20.4-45l13.5-0.7l25.6-1.4c0,0,5,2.7,10.2,6.4s10.9,8.3,12.1,12.1c2.3,7.5,3.3,8.8,3.3,8.8L589.8,757.7z"/>
<path class="st10" d="M582.5,764.7l-0.6,6.7l-20.1-2l0.8-4.5c3.5,0.8,14,2.9,17.7,0.3C581,764.9,581.7,764.7,582.5,764.7z"/>
<path class="st12" d="M580.3,766.2c2.5-1.2,5.5-0.1,6.7,2.4c0.1,0.2,0.2,0.3,0.2,0.5c2.1,5.1,6.9,16.2,6.9,16.2s10.5,9.8,4.1,18.9
	c-4,5.7-14.8,2.8-22.2-0.1c-3.5-1.5-6.6-4-8.8-7.1c-0.6-0.7-1.4-1.2-2.3-1.3c-1.6-0.3-3.2-1-4.4-2c-1.5-1.1-2.4-3-2.3-4.9l0.6-14
	c0,0,0.8-9.7,3.1-9.1S576.3,769,580.3,766.2z"/>
<path class="st13" d="M528.6,497.2l-20.2,21.4l-0.6,0.6l-0.7-0.4c-4.2-2.5-25.3-15.2-23.5-19.1c1-2.2,1.6-6.7,1.9-10.6
	c0-0.5,0.1-0.9,0.1-1.4c0.2-3.1,0.2-5.5,0.2-5.5s38-6.5,36.5,0c-0.6,2.6,0.3,5.6,1.6,8.2c0.4,0.8,0.8,1.5,1.2,2.1
	C526.2,494.1,527.3,495.7,528.6,497.2z"/>
<path class="st10" d="M523.9,490.4c-11.7,8.6-28,7.5-38.3-2.7c0.2-3.1,0.2-5.5,0.2-5.5s38-6.5,36.5,0
	C521.8,484.8,522.7,487.8,523.9,490.4z"/>
<path class="st13" d="M536,465.5c0.2,16.4-12.9,29.9-29.2,30.1c-15.6,0.2-28.7-11.7-30-27.3c-0.1-0.9-0.1-1.9-0.1-2.8
	c-0.3-16.4,12.7-29.9,29.1-30.2c16.4-0.3,29.9,12.7,30.2,29.1C536,464.7,536,465.1,536,465.5L536,465.5z"/>
<path class="st10" d="M535.6,460.7c-1.6,1.3-3.6,1.8-5.6,1.5c-4.6-1-6.2-8-10.8-8.5s-7.8,6-12.5,5.9c-2,0-3.8-1.4-5.6-2.3
	c-3.2-1.6-8.5-2.6-12-1.4c-5.2,1.8-7,6.6-10.3,10.5c-0.6,0.7-1.2,1.3-1.9,1.8c-0.1-0.9-0.1-1.9-0.1-2.8c-0.1-16.4,13-29.8,29.4-29.9
	C520.9,435.4,533.5,446.1,535.6,460.7L535.6,460.7z"/>
<path class="st8" d="M501.1,456.4c1.8,0.9,3.6,2.2,5.6,2.3c4.7,0.1,7.8-6.4,12.5-5.9s6.2,7.5,10.8,8.5c3.1,0.7,6-1.6,8.3-3.8
	c1.5-1.2,2.7-2.7,3.6-4.4c1-2.5,0.5-5.3-0.5-7.9s-2.2-4.9-2.7-7.6c-0.6-3.2,0.1-6.7-1.4-9.5c-1.3-2.2-3.4-3.7-5.9-4.1
	c-2.5-0.4-5-0.1-7.3,0.8c-1.1,0.5-2.4,0.9-3.6,1c-0.9-0.1-1.8-0.3-2.7-0.6c-2.9-1.1-5.6-2.6-8.2-4.4c-1.8-1.5-3.8-2.7-5.8-3.8
	c-2.1-1.1-4.6-1.2-6.7-0.3c-3.6,1.8-4.3,7-7.6,9.2c-2.3,1.6-5.3,1.4-8.1,1.5s-6,0.8-7.3,3.2c-1.2,2.1-0.6,4.7-0.4,7
	c0.1,2.5-0.2,5-1.1,7.4c-1.5,4.1-4.7,8.2-3.6,12.5c0.7,2.8,3.2,5.1,3.1,8c-0.1,0.7-0.2,1.5-0.2,2.2c0,0.8,0.6,1.4,1.3,1.6
	c0.4,0,0.8-0.1,1.1-0.4c1.7-0.9,3.2-2.1,4.4-3.6c3.4-3.9,5.1-8.7,10.4-10.5C492.6,453.8,497.8,454.8,501.1,456.4z"/>
<path class="st13" d="M535.5,630.9l-5.4,1.5l-12.5,3.4c-2.9,2.2-6.1,3.8-9.6,4.8c-7.6,1.9-12.6-2.3-16.7-8.8
	c-1.7-2.6-0.8-4.7,1.3-6.3c5.2-3.9,18.1-5.2,22-4.7c2.6,0.2,5.2-0.2,7.6-1.2c1.7-0.6,3.3-1.4,4.9-2.3L535.5,630.9z"/>
<path class="st10" d="M535.5,630.9l-5.4,1.5c-1.5-4.7-4.1-10.5-7.8-12.8c1.7-0.6,3.3-1.4,4.9-2.3L535.5,630.9z"/>
<path class="st10" d="M572,618.1c-2.2,1.8-4.1,3.5-4.1,3.5s-26,8.2-31,18.4c0,0-4-20-12.5-20.2c0,0,9.2-3.6,11.8-6.7l25.6-1.3
	C561.8,611.7,566.8,614.4,572,618.1z"/>
<path class="st11" d="M571.6,539.7l5.8,8.5l1.8,26.5c0,0,0.5,25.5,0,26.5l0.5-1c0,0-1,10-4,11.8s-9.8,7.6-9.8,7.6s-26,8.2-31,18.4
	c0,0-4-20-12.5-20.2c0,0,12.8-5,12.5-8.2c0,0,9.8-8.8,10.5-11s5.6-2.5,5.6-2.5s1.1-15.5-1.1-18s-3.5-7.2-3.5-7.2L571.6,539.7z"/>
<path class="st10" d="M508,640.6c-7.6,1.9-12.6-2.3-16.7-8.8c-1.7-2.6-0.8-4.7,1.3-6.3l0.8,0.3C493.5,625.8,507.2,631.8,508,640.6z"
	/>
<path class="st13" d="M504.9,648.5c-9,12.5-25.8-4.9-27-8.4c-0.5-1.3-2.2-2.4-4.1-3.3c-2.5-1.1-5.1-2-7.8-2.6l14.9-12.1l2.8,1.1
	l8.8,3.5C492.5,626.8,513.9,636,504.9,648.5z"/>
<path class="st10" d="M483.7,623.3c-8.2,3.9-10,9.5-10,13.5c-2.5-1.1-5.1-2-7.8-2.6l14.9-12.1L483.7,623.3z"/>
<path class="st10" d="M470.6,644.9c0,0-24-19-35.5-27.2c-1.4-1-2.8-2.2-4-3.5c3.4-2.1,5.9-3.5,5.9-3.5l29.6,1.2
	c0.8,1.4,1.3,2.3,1.3,2.3l16,10.5C464.6,630.9,470.6,644.9,470.6,644.9z"/>
<path class="st11" d="M438.6,545.2l-4.8,2.8c0,0-5.8,18.2-4.2,30.2c0,0-4.5,17.2-2.8,20c0,0-2.2,9.2,9.2,17.5s35.5,27.2,35.5,27.2
	s-6-14,13.2-20.2l-16-10.5c0,0-5.4-10.7-10.5-13c0,0-4-4-1.5-6.8s4.5-5.8,4.5-8.5s1-15.8,1-15.8l3-14L438.6,545.2z"/>
<path class="st10" d="M511.4,533.3h-9.8c-0.1-0.1-0.1-0.1-0.2-0.2l0.2-0.8l1.2-3.2l8.4,3.2L511.4,533.3z"/>
<path class="st12" d="M514.5,516.4c0,0-8.5,7.1-12.9,0c0,0-4,11.9,0,15.9h12C513.6,532.3,519.9,521.4,514.5,516.4z"/>
<path class="st10" d="M525.9,493.2l12.6,3.2c0,0-11.9,31-14.6,31l-15.1-7.2L525.9,493.2z"/>
<path class="st10" d="M528.6,497.2l-20.2,21.4l-0.6,0.6l-0.7-0.4l17.6-26.9l0.4,0.7C526.2,494.2,527.3,495.7,528.6,497.2z"/>
<path class="st11" d="M524.9,492.2l12.6,3.2c0,0-11.9,31-14.6,31l-15.1-7.2L524.9,492.2z"/>
<path class="st10" d="M484.5,489.7l-10.9,3.4c0,0,10.8,32.5,13.8,34.2l19.5-7.2L484.5,489.7z"/>
<path class="st10" d="M508.4,518.6l-0.6,0.6c0,0-26.2-15.2-24.2-19.5c1-2.2,1.6-6.7,1.9-10.6v-0.6L508.4,518.6z"/>
<path class="st11" d="M485.5,488.7l-10.9,3.4c0,0,10.8,32.5,13.8,34.2l19.5-7.2L485.5,488.7z"/>
<path class="st10" d="M459.5,541.8c0,0,6.6,1.2,6.5,8s2.7-8.8,2.7-8.8L459.5,541.8z"/>
<path class="st10" d="M461,562.8c0,0-1.8,10.3,0,19.7s1.7,12.5,3.1,13S461,562.8,461,562.8z"/>
<path class="st10" d="M545,561.8c-2,0.3-3.4,2.1-3.1,4c0,0.2,0.1,0.4,0.1,0.6C542.9,570.7,545,561.8,545,561.8z"/>
<path class="st10" d="M430.7,596.8c0,0,21.4-1.8,25,2S430.7,596.8,430.7,596.8z"/>
<path class="st10" d="M555,598.3c0,0,15.7-1.9,19.3,0.7"/>
<path class="st10" d="M561.4,600.8c0,0,9.3,0.3,11.5,1.5"/>
<path class="st10" d="M563.2,604.2c0,0,8.5-0.3,9.7,1"/>
<path class="st10" d="M443.3,651.2c0,0,7.3,3.8,6.5,7.7S443.3,651.2,443.3,651.2z"/>
<path class="st10" d="M437,653c0,0,11.1,14.4,9.6,19.2S437,653,437,653z"/>
<path class="st10" d="M556.1,655.4c0,0-5.5,4.5-5.3,8.3"/>
<path class="st10" d="M429.1,744.7c0,0,0,4.2,7.9,10.5"/>
<path class="st10" d="M568,734.7c0,0-0.8,8.8-8.5,13.4"/>
<g class="st14">
	<path d="M473.6,434.6c0-0.7-0.1-1.4-0.2-2.1c-0.1,1.5-0.1,3.1,0.1,4.6C473.6,436.3,473.6,435.5,473.6,434.6z"/>
	<path d="M472,462.6c0.2-2.9-2.4-5.2-3.1-8c0-0.1-0.1-0.3-0.1-0.4c-0.2,1.1-0.2,2.3,0.1,3.4c0.6,2.3,2.4,4.2,2.9,6.5
		C471.9,463.5,472,463.1,472,462.6z"/>
	<path d="M542,450.1c-0.9,1.7-2.1,3.2-3.6,4.4c-2.3,2.1-5.2,4.5-8.3,3.8c-4.6-1-6.2-8-10.8-8.5s-7.8,6-12.5,5.9
		c-2,0-3.8-1.4-5.6-2.3c-3.2-1.6-8.5-2.6-12-1.4c-5.2,1.8-7,6.6-10.4,10.5c-1.3,1.4-2.7,2.6-4.4,3.6c-0.3,0.2-0.7,0.3-1.1,0.4
		c-0.5-0.1-0.9-0.4-1.1-0.9v0.1c-0.1,0.7-0.2,1.5-0.2,2.2c0,0.8,0.6,1.4,1.3,1.6c0.4,0,0.8-0.1,1.1-0.4c1.7-0.9,3.1-2.1,4.4-3.6
		c3.4-3.9,5.1-8.7,10.4-10.5c3.5-1.2,8.8-0.2,12,1.4c1.8,0.9,3.6,2.2,5.6,2.3c4.7,0.1,7.8-6.4,12.5-5.9s6.3,7.4,10.8,8.5
		c3.1,0.7,6-1.6,8.3-3.8c1.5-1.2,2.7-2.7,3.6-4.4c0.6-1.4,0.7-3,0.4-4.5C542.3,449.1,542.2,449.6,542,450.1z"/>
</g>
<path class="st10" d="M404.8,784.3c0,0,8.2-2.5,11.6,2.3"/>
<path class="st10" d="M594,785.3c0,0-13.5-0.8-13,2.9"/>
<ellipse class="st0" cx="864.2" cy="773.3" rx="26.9" ry="4.5"/>
<ellipse class="st0" cx="91.1" cy="810.7" rx="26.9" ry="4.5"/>
<ellipse class="st0" cx="195.3" cy="835.1" rx="26.9" ry="4.5"/>
<ellipse class="st1" cx="805.2" cy="822.1" rx="40.2" ry="6.8"/>
<path class="st1" d="M821.9,811c1.8-1.5,3.2-3.5,3.8-5.8c0.5-2.3-0.5-5-2.7-5.9c-2.5-0.9-5.1,0.8-7.1,2.5s-4.3,3.7-6.9,3.3
	c2.7-2.5,4-6.2,3.2-9.8c-0.1-0.7-0.4-1.4-0.9-2c-1.4-1.5-3.8-0.8-5.5,0.3c-5.2,3.7-6.7,10.7-6.7,17.1c-0.5-2.3-0.1-4.7-0.1-7
	s-0.7-5-2.6-6.2c-1.2-0.7-2.6-1-4-0.9c-2.3-0.1-4.9,0.2-6.5,1.9c-2,2.1-1.5,5.7,0.3,8s4.3,3.8,6.8,5.4c1.9,1.2,3.6,2.7,4.8,4.6
	c0.1,0.3,0.3,0.5,0.4,0.8h14.6C816.1,815.6,819.1,813.5,821.9,811z"/>
<path class="st1" d="M196.6,723.3c0,0,5.5,7.2-2.5,18s-14.6,20-12,26.8c0,0,12.1-20.2,22-20.4S207.5,735.4,196.6,723.3z"/>
<path class="st10" d="M196.6,723.3c0.5,0.7,0.9,1.5,1.1,2.3c9.6,11.3,14.8,21.8,5.5,22.1c-8.6,0.2-18.9,15.7-21.4,19.5
	c0.1,0.3,0.2,0.6,0.3,0.9c0,0,12.1-20.2,22-20.4S207.5,735.4,196.6,723.3z"/>
<path class="st15" d="M206.9,732.4c0,2.5-0.3,4.6-0.6,4.6s-0.6-2-0.6-4.6s0.4-1.3,0.7-1.3S206.9,729.9,206.9,732.4z"/>
<path class="st15" d="M210.4,735.5c-2.2,1.2-4.2,1.9-4.3,1.6s1.5-1.5,3.7-2.8s1.4-0.3,1.5,0S212.6,734.2,210.4,735.5z"/>
<path class="st1" d="M167.6,723.3c0,0-5.5,7.2,2.5,18s14.6,20,12,26.8c0,0-12.1-20.2-22-20.4S156.8,735.4,167.6,723.3z"/>
<path class="st1" d="M167.6,723.3c-0.5,0.7-0.9,1.5-1.1,2.3c-9.6,11.3-14.7,21.8-5.5,22.1c8.6,0.2,19,15.7,21.4,19.5
	c-0.1,0.3-0.2,0.6-0.3,0.9c0,0-12.1-20.2-22-20.4S156.8,735.4,167.6,723.3z"/>
<path class="st15" d="M157.4,732.4c0,2.5,0.3,4.6,0.6,4.6s0.6-2,0.6-4.6s-0.4-1.3-0.7-1.3C157.6,731.1,157.4,729.9,157.4,732.4z"/>
<path class="st15" d="M153.9,735.5c2.2,1.2,4.1,1.9,4.3,1.6s-1.5-1.5-3.7-2.8s-1.3-0.3-1.5,0C152.8,734.7,151.7,734.2,153.9,735.5z"
	/>
<path class="st16" d="M159.2,767.1c0,0,15.4-0.5,20-3.8s23.6-7.2,24.8-2s23.1,26.3,5.8,26.4s-40.3-2.7-44.9-5.5
	S159.2,767.1,159.2,767.1z"/>
<path class="st17" d="M210,786c-17.3,0.1-40.3-2.7-44.9-5.5c-3.5-2.2-4.9-9.8-5.4-13.4h-0.5c0,0,1,12.4,5.6,15.2s27.6,5.7,44.9,5.5
	c5,0,6.7-1.8,6.6-4.5C215.6,785,213.7,786,210,786z"/>
</svg>
